<?xml version="1.0" encoding="utf-8"?>
<!-- Generator: Adobe Illustrator 16.0.0, SVG Export Plug-In . SVG Version: 6.00 Build 0)  -->
<!DOCTYPE svg PUBLIC "-//W3C//DTD SVG 1.0//EN" "http://www.w3.org/TR/2001/REC-SVG-20010904/DTD/svg10.dtd">
<svg version="1.0" id="Layer_1" xmlns="http://www.w3.org/2000/svg" xmlns:xlink="http://www.w3.org/1999/xlink" x="0px" y="0px"
	 width="100px" height="100px" viewBox="0 0 100 100" enable-background="new 0 0 100 100" xml:space="preserve">
<path d="M83.493,78.555l-16.784-3.73C62.136,78.054,56.325,80,50,80c-6.325,0-12.134-1.946-16.709-5.176l-16.784,3.73
	C12.928,79.349,10,83.001,10,86.667V90h80v-3.333C90,83.001,87.07,79.349,83.493,78.555z"/>
<path d="M50,10c-13.014,0-24.8,5.098-33.333,13.333c3.866,4,8.459,6.774,13.333,8.375v24.958c0,9.205,8.955,16.666,20,16.666
	s20-7.461,20-16.666V30C70,18.955,61.045,10,50,10z M63.333,43.333L56.667,50H43.333l-6.667-6.667V33.151
	c9.004,0.941,18.285-1.969,25.436-8.668c0.775,1.686,1.23,3.545,1.23,5.518V43.333z"/>
</svg>
